HIERARCHY
ROOT reference
{
  OFFSET 0 0 0
  CHANNELS 6 Xposition Yposition Zposition Zrotation Xrotation Yrotation
  JOINT Hips
  {
    OFFSET 28.0707 90.6407 80.0824
    CHANNELS 6 Xposition Yposition Zposition Zrotation Xrotation Yrotation
    JOINT Spine
    {
      OFFSET 0 7.86299 0
      CHANNELS 6 Xposition Yposition Zposition Zrotation Xrotation Yrotation
      JOINT Spine1
      {
        OFFSET 0 22.6654 0
        CHANNELS 6 Xposition Yposition Zposition Zrotation Xrotation Yrotation
        JOINT Neck
        {
          OFFSET 0 22.5723 2.05203
          CHANNELS 6 Xposition Yposition Zposition Zrotation Xrotation Yrotation
          JOINT Head
          {
            OFFSET 0 13.4246 -1.9178
            CHANNELS 6 Xposition Yposition Zposition Zrotation Xrotation Yrotation
            End Site
            {
              OFFSET 0 23.9725 0
            }
          }
        }
        JOINT LeftShoulder
        {
          OFFSET 3.7941 20.1358 -0.319195
          CHANNELS 6 Xposition Yposition Zposition Zrotation Xrotation Yrotation
          JOINT LeftArm
          {
            OFFSET 12.7665 0 0
            CHANNELS 6 Xposition Yposition Zposition Zrotation Xrotation Yrotation
            JOINT LeftForeArm
            {
              OFFSET 28.396 0 0
              CHANNELS 6 Xposition Yposition Zposition Zrotation Xrotation Yrotation
              JOINT LeftHand
              {
                OFFSET 28.7929 0 0
                CHANNELS 6 Xposition Yposition Zposition Zrotation Xrotation Yrotation
                End Site
                {
                  OFFSET 14.3835 0 0
                }
              }
            }
          }
        }
        JOINT RightShoulder
        {
          OFFSET -3.85764 20.1358 -0.319195
          CHANNELS 6 Xposition Yposition Zposition Zrotation Xrotation Yrotation
          JOINT RightArm
          {
            OFFSET -12.7665 0 0
            CHANNELS 6 Xposition Yposition Zposition Zrotation Xrotation Yrotation
            JOINT RightForeArm
            {
              OFFSET -28.396 0 0
              CHANNELS 6 Xposition Yposition Zposition Zrotation Xrotation Yrotation
              JOINT RightHand
              {
                OFFSET -28.7929 0 0
                CHANNELS 6 Xposition Yposition Zposition Zrotation Xrotation Yrotation
                End Site
                {
                  OFFSET -14.3835 0 0
                }
              }
            }
          }
        }
      }
    }
    JOINT LeftUpLeg
    {
      OFFSET 9.58901 0 0
      CHANNELS 6 Xposition Yposition Zposition Zrotation Xrotation Yrotation
      JOINT LeftLeg
      {
        OFFSET 0 -41.7092 0
        CHANNELS 6 Xposition Yposition Zposition Zrotation Xrotation Yrotation
        JOINT LeftFoot
        {
          OFFSET 0 -41.5308 0
          CHANNELS 6 Xposition Yposition Zposition Zrotation Xrotation Yrotation
          JOINT LeftToeBase
          {
            OFFSET 0 -6.23286 14.3835
            CHANNELS 6 Xposition Yposition Zposition Zrotation Xrotation Yrotation
            End Site
            {
              OFFSET 0 0 3.8356
            }
          }
        }
      }
    }
    JOINT RightUpLeg
    {
      OFFSET -9.58901 0 0
      CHANNELS 6 Xposition Yposition Zposition Zrotation Xrotation Yrotation
      JOINT RightLeg
      {
        OFFSET 0 -41.7092 0
        CHANNELS 6 Xposition Yposition Zposition Zrotation Xrotation Yrotation
        JOINT RightFoot
        {
          OFFSET 0 -41.5308 0
          CHANNELS 6 Xposition Yposition Zposition Zrotation Xrotation Yrotation
          JOINT RightToeBase
          {
            OFFSET 0 -6.23286 14.3835
            CHANNELS 6 Xposition Yposition Zposition Zrotation Xrotation Yrotation
            End Site
            {
              OFFSET 0 0 3.8356
            }
          }
        }
      }
    }
  }
}
MOTION
Frames:	4
Frame Time:	0.004
0 0 0 0 0 -0 -15.3996 84.8757 -193.671 -0.412288 -2.18364 3.38541 0 7.86299 -2.84217e-014 0.695403 -4.51389 -0.0795667 -1.77636e-015 22.6654 -2.84217e-014 0.486802 -1.50689 -0.100326 -1.77636e-015 22.5723 2.05203 0.269585 17.8497 -1.41062 0 13.4246 -1.9178 1.14915 2.02891 -1.32018 3.7941 20.1358 -0.319195 6.83673 2.30963 2.75612 12.7665 0 0 -13.3018 1.31171 -5.95002 28.396 0 0 0.50042 2.96454 -1.37038 28.7929 2.84217e-014 2.84217e-014 -1.56176 2.96694 0.267847 -3.85764 20.1358 -0.319195 -4.64178 9.74386 8.34624 -12.7665 -2.84217e-014 0 10.5618 3.78592 2.46043 -28.396 -2.84217e-014 0 -1.51963 1.6356 2.81761 -28.7929 -1.42109e-014 -2.84217e-014 7.87038 0.96102 -10.3239 9.58901 -1.42109e-014 0 4.41636 4.93311 -2.08568 0 -41.7092 0 -2.78701 -1.73652 -6.39548 0 -41.5308 0 4.31181 -9.70935 22.0448 0 -6.23286 14.3835 -7.95139e-016 -3.18055e-015 6.36111e-015 -9.58901 0 0 -2.74994 2.29549 0.970631 0 -41.7092 2.84217e-014 2.36325 3.93783 -6.47004 0 -41.5308 0 2.04954 -11.5061 -8.10798 0 -6.23286 14.3835 1.98785e-016 3.18055e-015 -0 
0 0 0 0 0 -0 -15.3996 84.8757 -193.653 -0.433416 -2.23267 3.42388 -5.32907e-015 7.86299 2.84217e-014 0.71476 -4.51389 -0.114482 0 22.6654 0 0.485933 -1.47495 -0.136243 -1.77636e-015 22.5723 2.05203 0.242912 17.8687 -1.39594 8.88178e-016 13.4246 -1.9178 1.13618 2.06315 -1.30719 3.7941 20.1358 -0.319195 6.85008 2.29189 2.77533 12.7665 2.84217e-014 0 -13.2935 1.3165 -5.95006 28.396 0 2.84217e-014 0.499453 2.9818 -1.34389 28.7929 0 2.84217e-014 -1.48661 2.98451 0.239969 -3.85764 20.1358 -0.319195 -4.62955 9.76594 8.34679 -12.7665 0 0 10.5805 3.79645 2.46046 -28.396 -1.42109e-014 0 -1.54 1.65174 2.83996 -28.7929 -2.84217e-014 0 7.87594 0.984032 -10.2295 9.58901 0 -2.84217e-014 4.442 5.00272 -2.13783 0 -41.7092 0 -2.78042 -1.77264 -6.38949 0 -41.5308 0 4.31603 -9.68396 22.0511 7.10543e-015 -6.23286 14.3835 0 0 -0 -9.58901 1.42109e-014 2.84217e-014 -2.72449 2.37435 0.95633 3.55271e-015 -41.7092 2.84217e-014 2.35972 3.91311 -6.45943 7.10543e-015 -41.5308 0 2.04828 -11.4764 -8.13458 0 -6.23286 14.3835 5.96354e-016 0 -4.77083e-015 
0 0 0 0 0 -0 -15.3996 84.8757 -193.654 -0.433873 -2.23606 3.42755 0 7.86299 -2.84217e-014 0.707277 -4.51179 -0.119512 -1.77636e-015 22.6654 0 0.484154 -1.48063 -0.141205 1.77636e-015 22.5723 2.05203 0.249189 17.8882 -1.3946 8.88178e-016 13.4246 -1.9178 1.12151 2.05702 -1.30744 3.7941 20.1358 -0.319195 6.8545 2.29091 2.7841 12.7665 0 0 -13.2863 1.32787 -5.96437 28.396 -2.84217e-014 -2.84217e-014 0.498858 2.99452 -1.3268 28.7929 0 0 -1.43769 2.99761 0.215285 -3.85764 20.1358 -0.319195 -4.61233 9.77205 8.34695 -12.7665 0 0 10.584 3.81139 2.4605 -28.396 1.42109e-014 0 -1.5412 1.6404 2.86421 -28.7929 2.84217e-014 0 7.81296 0.979573 -10.2171 9.58901 0 0 4.44417 5.00204 -2.14652 -8.88178e-016 -41.7092 0 -2.78308 -1.76766 -6.36787 0 -41.5308 2.84217e-014 4.29165 -9.69945 22.0769 7.10543e-015 -6.23286 14.3835 7.95139e-016 1.59028e-015 -0 -9.58901 -1.42109e-014 -2.84217e-014 -2.72245 2.37561 0.951866 -3.55271e-015 -41.7092 0 2.36208 3.91633 -6.48836 0 -41.5308 0 2.04854 -11.4772 -8.10544 7.10543e-015 -6.23286 14.3835 4.41391e-032 -1.59028e-015 1.59028e-015 
0 0 0 0 0 -0 -15.3996 84.8757 -193.654 -0.434146 -2.23687 3.42889 1.77636e-015 7.86299 0 0.695816 -4.52294 -0.127658 0 22.6654 -2.84217e-014 0.49957 -1.48229 -0.148588 -1.77636e-015 22.5723 2.05203 0.229232 17.8989 -1.37277 8.88178e-016 13.4246 -1.9178 1.11186 2.08208 -1.28645 3.7941 20.1358 -0.319195 6.85612 2.27309 2.78729 12.7665 2.84217e-014 -2.84217e-014 -13.283 1.34513 -5.95194 28.396 0 0 0.49866 3.00388 -1.31889 28.7929 0 -2.84217e-014 -1.37948 3.00719 0.205718 -3.85764 20.1358 -0.319195 -4.62071 9.782 8.3472 -12.7665 2.84217e-014 0 10.5991 3.81911 2.47101 -28.396 1.42109e-014 0 -1.54203 1.62436 2.86127 -28.7929 0 2.84217e-014 7.71729 0.975514 -10.1667 9.58901 0 0 4.44325 4.9995 -2.13408 -8.88178e-016 -41.7092 0 -2.77917 -1.76918 -6.37772 0 -41.5308 0 4.28852 -9.70188 22.0775 7.10543e-015 -6.23286 14.3835 7.95139e-016 1.59028e-015 6.36111e-015 -9.58901 0 0 -2.72183 2.37566 0.955727 -1.77636e-015 -41.7092 0 2.36132 3.91907 -6.47288 0 -41.5308 0 2.06748 -11.4814 -8.12924 -7.10543e-015 -6.23286 14.3835 -3.97569e-016 0 3.18055e-015 
